<svg id="Layer_1" height="300" viewBox="0 0 512 512" width="300" xmlns="http://www.w3.org/2000/svg" data-name="Layer 1" version="1.1" xmlns:xlink="http://www.w3.org/1999/xlink" xmlns:svgjs="http://svgjs.dev/svgjs"><g transform="matrix(1,0,0,1,0,0)"><path d="m256.079.109c141.384 0 256.006 114.591 256.006 255.963s-114.622 256.035-256.006 256.035-255.999-114.658-255.999-256.035 114.62-255.963 255.999-255.963zm109.426 384.3a14.216 14.216 0 1 0 -14.227-14.209 14.229 14.229 0 0 0 14.227 14.211zm-106.014 0a14.216 14.216 0 1 0 -14.227-14.209 14.221 14.221 0 0 0 14.227 14.211zm-19.346-209.3h-64.168l5.744 29.462h60.031zm165.629 2.556a6.73 6.73 0 0 0 -5.476-2.556h-58.098l-1.577 29.462h62.828l3.84-21.069a6.717 6.717 0 0 0 -1.518-5.837zm-26.489 126.4a7.029 7.029 0 0 0 6.995-5.83l4.345-23.632h-53.781l-1.608 29.462zm-134.319-39.549-2.678-49.847h-58.6l9.673 49.847zm81.758 10.095h-71.1l1.578 29.462h67.948l1.577-29.462zm13.334-59.942-2.679 49.847h55.091l9.137-49.847zm-88.216-10.092h78.658l1.578-29.462h-81.814zm78.126 10.092h-77.591l2.709 49.847h72.2l2.678-49.847zm-134.616 59.942 5.715 29.462h46.042l-1.609-29.462zm217.178 64.853h-187.892c-9.821 0-17.917-6.277-19.673-15.256l-1.934-10.042h176.254a17.231 17.231 0 0 0 16.935-14.105l21.012-114.735a17.184 17.184 0 0 0 -16.932-20.307h-226.258l-4.642-23.887c-2.649-13.575-15.09-23.423-29.584-23.423h-40.18a5.046 5.046 0 1 0 0 10.092h40.179c9.822 0 17.917 6.274 19.644 15.257l35.625 183.075c2.619 13.569 15.06 23.424 29.554 23.424h22.025a24.3 24.3 0 1 0 25.626 0h80.388a24.316 24.316 0 1 0 25.656 0h34.2a5.047 5.047 0 1 0 0-10.093z" fill="#005eb2ff" fill-rule="evenodd" data-original-color="#03a9f4ff" stroke="none"/></g></svg>