<svg id="Layer_25" height="512" viewBox="0 0 32 32" width="512" xmlns="http://www.w3.org/2000/svg" data-name="Layer 25"><path d="m24.271 22h-16.408a2.056 2.056 0 0 1 -2.063-1.717l-1.782-10a2.028 2.028 0 0 1 2.062-2.283h21.839a2.017 2.017 0 0 1 2 2.549l-3.648 10a2.07 2.07 0 0 1 -2 1.451z" fill="#b3f8ff"/><circle cx="8" cy="28" fill="#b3f8ff" r="2"/><circle cx="24" cy="28" fill="#b3f8ff" r="2"/><g fill="#046bba"><path d="m30 25h-26a1 1 0 0 1 0-2h20.271a3.065 3.065 0 0 0 2.939-2.107l3.667-10.059a2.918 2.918 0 0 0 -.467-2.6 3.076 3.076 0 0 0 -2.491-1.234h-21.072l-.861-5.165a1 1 0 0 0 -.986-.835h-3a1 1 0 0 0 0 2h2.153l.709 4.253a3.061 3.061 0 0 0 -1.14.818 2.96 2.96 0 0 0 -.685 2.387l1.777 9.973a2.886 2.886 0 0 0 .149.569h-.963a3 3 0 0 0 0 6h1.184a2.965 2.965 0 0 0 -.184 1 3 3 0 0 0 6 0 2.965 2.965 0 0 0 -.184-1h10.368a2.965 2.965 0 0 0 -.184 1 3 3 0 0 0 6 0 2.965 2.965 0 0 0 -.184-1h3.184a1 1 0 0 0 0-2zm-23.212-4.893-1.777-9.971a.936.936 0 0 1 .226-.759 1.109 1.109 0 0 1 .844-.377h21.838a1.093 1.093 0 0 1 .889.433.9.9 0 0 1 .172.774l-3.667 10.059a1.073 1.073 0 0 1 -1.042.734h-16.408a1.067 1.067 0 0 1 -1.075-.893zm2.212 7.893a1 1 0 1 1 -1-1 1 1 0 0 1 1 1zm16 0a1 1 0 1 1 -1-1 1 1 0 0 1 1 1z"/><path d="m16 19a1 1 0 0 0 1-1v-6a1 1 0 0 0 -2 0v6a1 1 0 0 0 1 1z"/><path d="m21 19a1 1 0 0 0 1-1v-6a1 1 0 0 0 -2 0v6a1 1 0 0 0 1 1z"/><path d="m11 19a1 1 0 0 0 1-1v-6a1 1 0 0 0 -2 0v6a1 1 0 0 0 1 1z"/></g></svg>